Coordinates
version=1
nRows=12
nColumns=24
inDegrees=yes

Units are S.I. units (second, meters, Newtons, ...)
Angles are in degrees.

endheader
time	pelvis_tilt	pelvis_list	pelvis_rotation	pelvis_tx	pelvis_ty	pelvis_tz	hip_flexion_r	hip_adduction_r	hip_rotation_r	knee_angle_r	ankle_angle_r	subtalar_angle_r	mtp_angle_r	hip_flexion_l	hip_adduction_l	hip_rotation_l	knee_angle_l	ankle_angle_l	subtalar_angle_l	mtp_angle_l	lumbar_extension	lumbar_bending	lumbar_rotation
      3.05500000	     17.36722045	      6.62024835	     -0.10806705	      0.17301884	      1.01439107	      0.00750382	     -7.47301739	     -4.47546865	    -14.81901457	    -13.36897718	      1.35511024	     -1.78358469	     -4.27970053	     -0.90597189	      3.06206087	     -5.01844587	    -57.67348383	      1.20573795	      6.42430554	     57.03523777	    -31.61272600	     -7.19566647	     22.55476668
      3.06000000	     17.25681605	      6.66506331	     -0.18714999	      0.17737141	      1.01466026	      0.00800515	     -7.64513889	     -4.48825435	    -14.65602762	    -13.33151735	      1.54154919	     -1.87534993	     -4.50154803	     -0.28625848	      3.05685680	     -5.30749644	    -57.44815072	      1.72431138	      6.36419256	     55.84894790	    -31.51558492	     -7.31842451	     22.58211152
      3.06500000	     17.24904093	      6.71920812	     -0.27432015	      0.18179252	      1.01509237	      0.00845946	     -7.95645855	     -4.52187330	    -14.58528032	    -13.25751060	      1.72250798	     -1.79253591	     -4.50749639	      0.17419036	      3.06585702	     -5.62090272	    -57.09761153	      2.11097648	      6.02604265	     55.65203691	    -31.52075514	     -7.44233488	     22.61714756
      3.07000000	     17.13890850	      6.77535132	     -0.34426827	      0.18610456	      1.01534177	      0.00892098	     -8.12727001	     -4.55055124	    -14.44321257	    -13.22303471	      1.91797523	     -1.85109823	     -4.73060995	      0.76079170	      3.07334598	     -5.91840928	    -56.75396173	      2.61394169	      5.92005991	     54.33627959	    -31.42893619	     -7.57238253	     22.64576909
      3.07500000	     17.13214683	      6.82932633	     -0.41673310	      0.19046459	      1.01574322	      0.00934549	     -8.43776297	     -4.58179775	    -14.37195390	    -13.14905111	      2.09445068	     -1.79843048	     -4.73238915	      1.19284029	      3.08022240	     -6.23602846	    -56.29543422	      2.96997560	      5.55416758	     54.16799342	    -31.44408900	     -7.69104739	     22.65116104
      3.08000000	     17.07283145	      6.88958567	     -0.47974556	      0.19476786	      1.01604256	      0.00975184	     -8.67631360	     -4.61868181	    -14.27350652	    -13.09560475	      2.29096455	     -1.79732248	     -4.95481479	      1.67929925	      3.09699877	     -6.54015532	    -55.81882320	      3.43813242	      5.39034513	     52.85394875	    -31.40801359	     -7.81522873	     22.67193012
      3.08500000	     17.04360102	      6.95010545	     -0.54951257	      0.19908199	      1.01638101	      0.01015229	     -8.95348576	     -4.65873242	    -14.19194314	    -13.03198022	      2.47301366	     -1.76986580	     -4.95423436	      2.10694019	      3.11171539	     -6.87393265	    -55.25578182	      3.74789864	      5.02009390	     52.70449139	    -31.40330574	     -7.93992340	     22.67808882
      3.09000000	     16.99963366	      7.01149966	     -0.62301754	      0.20336401	      1.01667749	      0.01055043	     -9.20581066	     -4.70227306	    -14.10374926	    -12.97971037	      2.66135453	     -1.74323952	     -4.96814241	      2.53665839	      3.12941857	     -7.21588464	    -54.64422995	      4.04902857	      4.67362655	     52.44634192	    -31.38508839	     -8.06992558	     22.69930030
      3.09500000	     16.92589276	      7.05938064	     -0.67345019	      0.20763885	      1.01691033	      0.01089143	     -9.42681214	     -4.72993268	    -14.04659289	    -12.92694188	      2.84839886	     -1.72542150	     -5.21703205	      2.99086049	      3.13582061	     -7.53616929	    -54.01975306	      4.47020245	      4.55262245	     50.96818413	    -31.33324111	     -8.17361211	     22.75124233
      3.10000000	     16.90742929	      7.12212858	     -0.74312670	      0.21191933	      1.01720501	      0.01125046	     -9.71421796	     -4.77677713	    -13.97501576	    -12.86201577	      3.04916373	     -1.68343885	     -5.21122993	      3.35369346	      3.15711009	     -7.89089774	    -53.29797736	      4.70139509	      4.24775135	     50.83640367	    -31.34325245	     -8.29915474	     22.73809083
      3.10500000	     16.87916915	      7.17840042	     -0.81476604	      0.21617211	      1.01745296	      0.01159695	     -9.98227126	     -4.82023618	    -13.91799327	    -12.80741703	      3.24452166	     -1.63045485	     -5.21635273	      3.71304899	      3.17528242	     -8.25199065	    -52.53279319	      4.91641154	      3.97466951	     50.62743317	    -31.34429261	     -8.42057815	     22.76209054
      3.11000000	     16.84888408	      7.23471047	     -0.89262206	      0.22042959	      1.01768387	      0.01193018	    -10.24583328	     -4.86779762	    -13.86176212	    -12.75525432	      3.44329299	     -1.56872882	     -5.23006741	      4.05315985	      3.19547494	     -8.62633351	    -51.71525871	      5.10744751	      3.75716542	     50.35315349	    -31.34027549	     -8.54211667	     22.80289923
